<svg width="344" height="498" viewBox="0 0 344 498" fill="none" xmlns="http://www.w3.org/2000/svg">
<ellipse cx="176" cy="383.5" rx="117" ry="114.5" fill="#FFFCF6"/>
<ellipse cx="176" cy="227.5" rx="88" ry="82.5" fill="#FFFCF6"/>
<ellipse cx="176" cy="115.5" rx="61" ry="60.5" fill="#FFFCF6"/>
<line x1="263.743" y1="211.571" x2="343.743" y2="163.571" stroke="black"/>
<line x1="87.7585" y1="212.438" x2="0.758463" y2="164.438" stroke="black"/>
<rect x="99" y="55" width="150" height="25" fill="black"/>
<rect x="124" width="101" height="61" fill="black"/>
<ellipse cx="156.5" cy="103" rx="5.5" ry="5" fill="black"/>
<ellipse cx="200.5" cy="143" rx="5.5" ry="5" fill="black"/>
<ellipse cx="179.5" cy="143" rx="5.5" ry="5" fill="black"/>
<ellipse cx="156.5" cy="143" rx="5.5" ry="5" fill="black"/>
<ellipse cx="136.5" cy="133" rx="5.5" ry="5" fill="black"/>
<ellipse cx="176.5" cy="372" rx="5.5" ry="5" fill="black"/>
<ellipse cx="176.5" cy="326" rx="5.5" ry="5" fill="black"/>
<ellipse cx="176.5" cy="251" rx="5.5" ry="5" fill="black"/>
<ellipse cx="176.5" cy="212" rx="5.5" ry="5" fill="black"/>
<ellipse cx="195.5" cy="103" rx="5.5" ry="5" fill="black"/>
<ellipse cx="201" cy="121.5" rx="34" ry="6.5" fill="#FFA500"/>
<line x1="297.429" y1="96.2572" x2="282.429" y2="121.257" stroke="white"/>
<line x1="282.392" y1="95.6902" x2="297.392" y2="114.69" stroke="white"/>
<line x1="282.071" y1="104.505" x2="303.071" y2="107.505" stroke="white"/>
</svg>
